<?xml version="1.0" encoding="UTF-8"?>
<svg version="1.1" xmlns="http://www.w3.org/2000/svg" width="1024" height="1024">
<path d="M0 0 C0.73541016 0.00202423 1.47082031 0.00404846 2.22851562 0.00613403 C2.97939453 0.00517731 3.73027344 0.00422058 4.50390625 0.00323486 C6.09440189 0.00255315 7.6849003 0.00440682 9.27539062 0.00857544 C11.71816217 0.01392386 14.16074984 0.00863019 16.60351562 0.00222778 C18.1451827 0.00288857 19.68684966 0.00416973 21.22851562 0.00613403 C21.96392578 0.0041098 22.69933594 0.00208557 23.45703125 0 C28.61356402 0.02399493 28.61356402 0.02399493 29.72851562 1.13894653 C29.85232401 3.19373107 29.90649765 5.25273613 29.93383789 7.31106567 C29.94373749 7.95494736 29.95363708 8.59882904 29.96383667 9.26222229 C29.9955309 11.39947785 30.02024012 13.53675567 30.04492188 15.67410278 C30.06548458 17.15241589 30.08648087 18.63072303 30.1078949 20.10902405 C30.16318622 24.00686824 30.2125642 27.90476611 30.26074219 31.80270386 C30.31090582 35.77746376 30.36661864 39.75214537 30.421875 43.72683716 C30.52954286 51.53080738 30.63096849 59.33484255 30.72851562 67.13894653 C31.50646484 66.34512573 32.28441406 65.55130493 33.0859375 64.73342896 C41.81614087 56.16211787 52.80048779 53.96129881 64.60351562 53.95144653 C65.36792969 53.93920044 66.13234375 53.92695435 66.91992188 53.91433716 C72.19937065 53.90089204 76.65600056 54.66388462 81.72851562 56.13894653 C82.5921875 56.3877356 83.45585937 56.63652466 84.34570312 56.89285278 C94.66569176 60.58876567 103.13898652 68.594638 107.84179688 78.47879028 C112.25741369 88.89964598 113.01223424 98.36342811 112.92382812 109.58035278 C112.92009019 110.95754286 112.91724691 112.33473562 112.91525269 113.71192932 C112.90767756 117.30728719 112.88808303 120.90247915 112.86584473 124.49777222 C112.8452531 128.17827105 112.83622272 131.85879712 112.82617188 135.53933716 C112.80483023 142.73928195 112.77076993 149.93909085 112.72851562 157.13894653 C113.34942581 157.06209122 113.970336 156.9852359 114.61006165 156.90605164 C115.82945686 156.7613871 115.82945686 156.7613871 117.07348633 156.61380005 C117.88002151 156.51631973 118.6865567 156.41883942 119.51753235 156.31840515 C122.12334036 156.10689984 124.18947185 156.53666173 126.72851562 157.13894653 C129.82821037 157.40940938 132.9334215 157.55183071 136.04101562 157.70144653 C136.87697266 157.74463013 137.71292969 157.78781372 138.57421875 157.83230591 C140.62548498 157.9377996 142.67698043 158.03881969 144.72851562 158.13894653 C144.27476562 157.08707153 143.82101562 156.03519653 143.35351562 154.95144653 C142.80633326 153.68297832 142.26525958 152.41186682 141.72851562 151.13894653 C141.38796143 150.38089722 141.04740723 149.6228479 140.6965332 148.84182739 C134.83876879 132.48588545 137.46042458 111.695932 137.53289795 94.51193237 C137.54383368 91.23096593 137.54336314 87.95004034 137.5427599 84.6690588 C137.54303066 81.50791744 137.54849277 78.34680322 137.55576134 75.18567085 C137.55894374 73.67652147 137.56091441 72.16736903 137.56165504 70.65821648 C137.56380925 68.5696259 137.57252588 66.48117043 137.58325195 64.39260864 C137.58706375 63.20557846 137.59087555 62.01854828 137.59480286 60.79554749 C137.72851562 58.13894653 137.72851562 58.13894653 138.72851562 57.13894653 C141.31041009 57.03803178 143.86498063 56.99923155 146.44726562 57.00613403 C147.22034058 57.00517731 147.99341553 57.00422058 148.78991699 57.00323486 C150.42749106 57.00255313 152.06506781 57.00440697 153.70263672 57.00857544 C156.21783483 57.01392382 158.73285436 57.00863027 161.24804688 57.00222778 C162.83528685 57.00288857 164.42252672 57.00416973 166.00976562 57.00613403 C167.14569153 57.00309769 167.14569153 57.00309769 168.30456543 57 C173.61356431 57.02399522 173.61356431 57.02399522 174.72851562 58.13894653 C174.8316112 60.39164169 174.86425634 62.64757364 174.87036133 64.90261841 C174.87383575 65.61007202 174.87731018 66.31752563 174.88088989 67.04641724 C174.88826148 68.58896594 174.89359935 70.13152536 174.89718056 71.67408752 C174.9043372 74.12148647 174.92000119 76.56868387 174.93852234 79.01602173 C174.99100371 85.97688898 175.03889371 92.9376517 175.05444336 99.89871216 C175.06457189 104.15354723 175.09402819 108.4078839 175.13576317 112.66252136 C175.14801906 114.27945673 175.15320438 115.89646273 175.15096474 117.51344299 C174.96917437 131.05345645 174.96917437 131.05345645 181.14009094 142.74038696 C184.06755816 145.42350582 186.7267335 147.23655098 190.72851562 147.13894653 C191.71335937 146.54726685 192.69820312 145.95558716 193.71289062 145.34597778 C199.17945551 142.10317293 205.34467787 140.65433947 211.4296875 138.95925903 C212.33912109 138.68082153 213.24855469 138.40238403 214.18554688 138.11550903 C215.42268433 137.76093628 215.42268433 137.76093628 216.68481445 137.39920044 C219.7048216 135.53690479 219.83514129 133.52306492 220.72851562 130.13894653 C220.91918934 127.71945991 221.01168372 125.29119573 221.03149414 122.86428833 C221.04415314 121.81199791 221.04415314 121.81199791 221.05706787 120.7384491 C221.08269238 118.43834704 221.09494621 116.13837278 221.10742188 113.83816528 C221.12360615 112.23486833 221.14078713 110.63158115 221.15892029 109.02830505 C221.20447548 104.82184352 221.23935829 100.61536884 221.27111816 96.40878296 C221.32313302 89.65818037 221.38798806 82.90772039 221.45933342 76.15729713 C221.48221661 73.79683857 221.49844909 71.43639846 221.51405334 69.07588196 C221.52745233 67.6394632 221.54106646 66.20304642 221.55493164 64.76663208 C221.56444351 63.50787766 221.57395538 62.24912323 221.58375549 60.95222473 C221.72851562 58.13894653 221.72851562 58.13894653 222.72851562 57.13894653 C225.32185711 57.05043983 227.88914142 57.02361484 230.48242188 57.04129028 C231.1694519 57.04229736 231.85648193 57.04330444 232.56433105 57.04434204 C235.13990947 57.04958877 237.71546416 57.06354994 240.29101562 57.07644653 C246.04539062 57.09707153 251.79976562 57.11769653 257.72851562 57.13894653 C257.72851562 78.58894653 257.72851562 100.03894653 257.72851562 122.13894653 C264.98851562 119.16894653 272.24851562 116.19894653 279.72851562 113.13894653 C281.70851563 112.80894653 283.68851563 112.47894653 285.72851562 112.13894653 C285.72851562 75.17894653 285.72851562 38.21894653 285.72851562 0.13894653 C297.93851563 0.13894653 310.14851563 0.13894653 322.72851562 0.13894653 C322.72851562 33.46894653 322.72851562 66.79894653 322.72851562 101.13894653 C325.03851562 101.13894653 327.34851563 101.13894653 329.72851562 101.13894653 C339.28907423 102.28050577 346.67853588 105.48455684 353.72851562 112.13894653 C353.72851562 112.79894653 353.72851562 113.45894653 353.72851562 114.13894653 C354.38851563 114.13894653 355.04851562 114.13894653 355.72851562 114.13894653 C357.16601562 116.11550903 357.16601562 116.11550903 358.72851562 118.76394653 C359.24414062 119.62246216 359.75976562 120.48097778 360.29101562 121.36550903 C365.57160279 131.55359841 366.1227921 144.22997835 362.72851562 155.13894653 C358.32625354 165.65641316 350.96356459 173.22857821 340.72851562 178.13894653 C329.48244578 182.61638647 319.49038435 182.36964577 307.72851562 180.13894653 C307.72851562 179.47894653 307.72851562 178.81894653 307.72851562 178.13894653 C306.84329224 178.20009644 306.84329224 178.20009644 305.94018555 178.26248169 C303.26607422 178.44087857 300.59120704 178.6025916 297.91601562 178.76394653 C296.98724609 178.82839966 296.05847656 178.89285278 295.1015625 178.95925903 C294.20888672 179.01082153 293.31621094 179.06238403 292.39648438 179.11550903 C291.5743042 179.1678772 290.75212402 179.22024536 289.9050293 179.27420044 C287.72851562 179.13894653 287.72851562 179.13894653 284.72851562 177.13894653 C282.49114144 176.78939622 282.49114144 176.78939622 280.01757812 176.76004028 C279.10234375 176.72588013 278.18710937 176.69171997 277.24414062 176.65652466 C276.29023437 176.63009888 275.33632813 176.6036731 274.35351562 176.57644653 C272.47058722 176.51616204 270.58776427 176.45246795 268.70507812 176.38504028 C267.87057129 176.36111206 267.03606445 176.33718384 266.17626953 176.31253052 C263.62539225 176.13163348 261.22312562 175.69123304 258.72851562 175.13894653 C258.39851563 176.12894653 258.06851562 177.11894653 257.72851562 178.13894653 C246.17851563 178.13894653 234.62851562 178.13894653 222.72851562 178.13894653 C222.39851562 175.16894653 222.06851563 172.19894653 221.72851562 169.13894653 C221.11105469 169.59785278 220.49359375 170.05675903 219.85742188 170.52957153 C206.40621197 180.27504477 193.28146319 183.62777787 176.69042969 181.48855591 C169.98494251 180.29365078 163.63375727 177.57417758 158.10351562 173.63894653 C153.57128821 171.62462324 150.99095865 172.61466267 146.37695312 174.04910278 C143.62839223 175.18014775 141.27148571 176.60619744 138.72851562 178.13894653 C129.80420571 182.1850896 120.57791674 185.0230668 110.72851562 183.13894653 C110.15085449 182.47983276 109.57319336 181.82071899 108.97802734 181.14163208 C105.89580891 178.39760801 103.85885341 178.59878277 99.77539062 178.52957153 C99.11516907 178.51303528 98.45494751 178.49649902 97.77471924 178.47946167 C95.67588936 178.43106202 93.57778341 178.40963134 91.47851562 178.38894653 C90.05139603 178.3607797 88.62431004 178.33085125 87.19726562 178.29910278 C83.70783954 178.2253089 80.2185509 178.17568375 76.72851562 178.13894653 C76.72264938 177.24438248 76.71678314 176.34981842 76.71073914 175.42814636 C76.65266807 166.96899373 76.58050931 158.5101011 76.49280071 150.05120182 C76.44820575 145.70310914 76.40892613 141.35510782 76.38208008 137.00686646 C76.35593799 132.80509579 76.31545981 128.60367873 76.26532936 124.40212822 C76.248734 122.80473693 76.23717431 121.20728459 76.23090172 119.60981941 C76.30000366 105.44412209 76.30000366 105.44412209 70.47851562 92.76394653 C65.57073184 88.07924383 61.53618136 86.96146743 54.91601562 86.63894653 C47.09857299 86.854465 41.50785535 89.59614636 35.79101562 94.82644653 C30.07851593 104.00106726 30.25994011 113.94322325 30.21679688 124.42800903 C30.19992032 125.98314809 30.18176615 127.53827375 30.16239929 129.09338379 C30.11521569 133.15385755 30.08520298 137.21427699 30.05895996 141.27493286 C30.02370934 146.16445788 29.96678811 151.05377441 29.91356659 155.94313049 C29.83542431 163.34170804 29.78453883 170.74001971 29.72851562 178.13894653 C17.84851563 178.13894653 5.96851563 178.13894653 -6.27148438 178.13894653 C-6.29402928 155.07828277 -6.31246231 132.01762788 -6.32329655 108.95695591 C-6.32846004 98.25028146 -6.33550375 87.54361433 -6.34692383 76.83694458 C-6.35686904 67.5085857 -6.36333741 58.18023212 -6.36557287 48.85186809 C-6.36688025 43.90935704 -6.36996785 38.96686114 -6.37721443 34.02435493 C-6.38397208 29.37793418 -6.38610186 24.73153491 -6.38459206 20.08510971 C-6.3848685 18.37460527 -6.38687513 16.66410014 -6.39068985 14.95359993 C-6.39562313 12.62864154 -6.39448403 10.30376561 -6.39173889 7.97880554 C-6.39266068 6.67446847 -6.39358248 5.3701314 -6.3945322 4.02626896 C-6.18673313 -0.84974485 -4.39993583 0.02047425 0 0 Z " fill="#FEFEFE" transform="translate(405.271484375,303.8610534667969)"/>
<path d="M0 0 C9.85893537 -0.11679697 19.71770123 -0.20516675 29.57719231 -0.25906086 C34.15734489 -0.28495146 38.73701786 -0.31996428 43.31689453 -0.37719727 C47.75198068 -0.43226235 52.186611 -0.46157406 56.62201309 -0.47438622 C58.29860723 -0.48349462 59.97518166 -0.50127266 61.651577 -0.52865028 C81.68618604 -0.84227559 98.75232269 3.55396148 113.671875 17.51171875 C123.33593551 27.84058879 128.1006781 41.24002858 127.96875 55.33984375 C127.26096211 66.17152623 125.14458342 74.45284038 120 84 C119.32880207 85.33105806 118.66054351 86.66362262 118 88 C117.34 88 116.68 88 116 88 C115.76539063 88.5671875 115.53078125 89.134375 115.2890625 89.71875 C111.22096571 96.91804857 103.42751119 101.83643042 96 105 C97.47963438 108.99501282 99.36876024 112.56400336 101.5 116.25 C101.84530762 116.84844727 102.19061523 117.44689453 102.54638672 118.06347656 C103.69267118 120.04522311 104.84527692 122.02315919 106 124 C106.41411133 124.70898438 106.82822266 125.41796875 107.25488281 126.1484375 C113.01637937 135.99774872 118.79671584 145.83609838 124.80859375 155.53515625 C125.31205322 156.35056885 125.8155127 157.16598145 126.33422852 158.00610352 C127.35040953 159.65089658 128.37035082 161.29337323 129.39428711 162.93334961 C129.85971924 163.68753174 130.32515137 164.44171387 130.8046875 165.21875 C131.22733887 165.89873047 131.64999023 166.57871094 132.08544922 167.27929688 C133 169 133 169 133 171 C127.16557097 171.32281905 121.33638488 171.5578377 115.49511719 171.71411133 C113.51177429 171.77926353 111.52905072 171.86782452 109.54785156 171.98071289 C96.43990136 172.70856641 96.43990136 172.70856641 91 171 C86.82226783 167.24460688 85.04286315 163.16011826 83 158 C82.11514568 156.45760319 81.20027122 154.93160265 80.2421875 153.43359375 C76.63952207 147.376171 73.08077362 141.34430499 70 135 C69.52820313 134.07574219 69.05640625 133.15148437 68.5703125 132.19921875 C67.70548345 130.43729091 66.85925408 128.66418115 66.10058594 126.85400391 C65.77606445 126.08362793 65.45154297 125.31325195 65.1171875 124.51953125 C64.82956543 123.81159424 64.54194336 123.10365723 64.24560547 122.37426758 C62.25576934 118.65511003 59.53511706 115.3711663 57 112 C50.4 111.67 43.8 111.34 37 111 C37 130.8 37 150.6 37 171 C31.080625 171.185625 25.16125 171.37125 19.0625 171.5625 C17.19215088 171.62381104 15.32180176 171.68512207 13.39477539 171.74829102 C11.92074776 171.7922365 10.4467087 171.83580137 8.97265625 171.87890625 C8.20046753 171.90561401 7.42827881 171.93232178 6.63269043 171.95983887 C4.75581208 172.01229338 2.87757327 172.01193515 1 172 C0 171 0 171 -0.12304783 168.2063818 C-0.12212604 166.94629079 -0.12120424 165.68619978 -0.12025452 164.38792419 C-0.12110894 163.68878232 -0.12196337 162.98964044 -0.12284368 162.26931244 C-0.12450051 159.90925249 -0.11897384 157.54926247 -0.11352539 155.18920898 C-0.11324354 153.50435386 -0.11340122 151.81949861 -0.1139679 150.13464355 C-0.11425594 145.54599547 -0.10835811 140.9573733 -0.10139394 136.36873126 C-0.09516153 131.57875368 -0.09455669 126.78877557 -0.09336853 121.99879456 C-0.09025488 112.92170968 -0.08204104 103.84463679 -0.07201904 94.7675572 C-0.06085895 84.43641419 -0.05534772 74.10527061 -0.05032361 63.77412307 C-0.03985845 42.51607535 -0.02225836 21.25803843 0 0 Z M37 33 C37 48.18 37 63.36 37 79 C44.858125 79.0928125 44.858125 79.0928125 52.875 79.1875 C55.32268799 79.22846802 55.32268799 79.22846802 57.81982422 79.27026367 C70.80257145 79.44413867 70.80257145 79.44413867 82.40234375 74.23828125 C87.34605681 68.03662593 90.7030206 62.27059356 90.26953125 54.06640625 C89.23942453 46.16892138 86.53946711 41.88836209 80.546875 36.62890625 C75.05149064 33.11422024 69.24774014 32.71136856 62.87890625 32.8046875 C61.88691223 32.80770874 61.88691223 32.80770874 60.87487793 32.81079102 C58.43734664 32.82114503 55.99991532 32.84906639 53.5625 32.875 C45.3640625 32.936875 45.3640625 32.936875 37 33 Z " fill="#FEFEFE" transform="translate(95,311)"/>
<path d="M0 0 C0.73541016 0.00202423 1.47082031 0.00404846 2.22851562 0.00613403 C2.97939453 0.00517731 3.73027344 0.00422058 4.50390625 0.00323486 C6.09440189 0.00255315 7.6849003 0.00440682 9.27539062 0.00857544 C11.71816217 0.01392386 14.16074984 0.00863019 16.60351562 0.00222778 C18.1451827 0.00288857 19.68684966 0.00416973 21.22851562 0.00613403 C21.96392578 0.0041098 22.69933594 0.00208557 23.45703125 0 C28.61356402 0.02399493 28.61356402 0.02399493 29.72851562 1.13894653 C29.85232401 3.19373107 29.90649765 5.25273613 29.93383789 7.31106567 C29.94373749 7.95494736 29.95363708 8.59882904 29.96383667 9.26222229 C29.9955309 11.39947785 30.02024012 13.53675567 30.04492188 15.67410278 C30.06548458 17.15241589 30.08648087 18.63072303 30.1078949 20.10902405 C30.16318622 24.00686824 30.2125642 27.90476611 30.26074219 31.80270386 C30.31090582 35.77746376 30.36661864 39.75214537 30.421875 43.72683716 C30.52954286 51.53080738 30.63096849 59.33484255 30.72851562 67.13894653 C31.50646484 66.34512573 32.28441406 65.55130493 33.0859375 64.73342896 C41.81614087 56.16211787 52.80048779 53.96129881 64.60351562 53.95144653 C65.36792969 53.93920044 66.13234375 53.92695435 66.91992188 53.91433716 C72.19937065 53.90089204 76.65600056 54.66388462 81.72851562 56.13894653 C82.5921875 56.3877356 83.45585937 56.63652466 84.34570312 56.89285278 C94.66569176 60.58876567 103.13898652 68.594638 107.84179688 78.47879028 C112.25741369 88.89964598 113.01223424 98.36342811 112.92382812 109.58035278 C112.92009019 110.95754286 112.91724691 112.33473562 112.91525269 113.71192932 C112.90767756 117.30728719 112.88808303 120.90247915 112.86584473 124.49777222 C112.8452531 128.17827105 112.83622272 131.85879712 112.82617188 135.53933716 C112.80483023 142.73928195 112.77076993 149.93909085 112.72851562 157.13894653 C113.38851562 157.46894653 114.04851562 157.79894653 114.72851562 158.13894653 C113.73851562 158.46894653 112.74851562 158.79894653 111.72851562 159.13894653 C111.72851562 165.07894653 111.72851562 171.01894653 111.72851562 177.13894653 C110.40851563 177.13894653 109.08851563 177.13894653 107.72851562 177.13894653 C107.39851562 177.79894653 107.06851563 178.45894653 106.72851562 179.13894653 C96.82851563 178.80894653 86.92851562 178.47894653 76.72851562 178.13894653 C76.71393311 175.97469116 76.69935059 173.81043579 76.68432617 171.58059692 C76.63383197 164.40399064 76.56721129 157.22759795 76.49280071 150.05120182 C76.44820575 145.70310914 76.40892613 141.35510782 76.38208008 137.00686646 C76.35593799 132.80509579 76.31545981 128.60367873 76.26532936 124.40212822 C76.248734 122.80473693 76.23717431 121.20728459 76.23090172 119.60981941 C76.30000366 105.44412209 76.30000366 105.44412209 70.47851562 92.76394653 C65.57073184 88.07924383 61.53618136 86.96146743 54.91601562 86.63894653 C47.09857299 86.854465 41.50785535 89.59614636 35.79101562 94.82644653 C30.07851593 104.00106726 30.25994011 113.94322325 30.21679688 124.42800903 C30.19992032 125.98314809 30.18176615 127.53827375 30.16239929 129.09338379 C30.11521569 133.15385755 30.08520298 137.21427699 30.05895996 141.27493286 C30.02370934 146.16445788 29.96678811 151.05377441 29.91356659 155.94313049 C29.83542431 163.34170804 29.78453883 170.74001971 29.72851562 178.13894653 C17.84851563 178.13894653 5.96851563 178.13894653 -6.27148438 178.13894653 C-6.29402928 155.07828277 -6.31246231 132.01762788 -6.32329655 108.95695591 C-6.32846004 98.25028146 -6.33550375 87.54361433 -6.34692383 76.83694458 C-6.35686904 67.5085857 -6.36333741 58.18023212 -6.36557287 48.85186809 C-6.36688025 43.90935704 -6.36996785 38.96686114 -6.37721443 34.02435493 C-6.38397208 29.37793418 -6.38610186 24.73153491 -6.38459206 20.08510971 C-6.3848685 18.37460527 -6.38687513 16.66410014 -6.39068985 14.95359993 C-6.39562313 12.62864154 -6.39448403 10.30376561 -6.39173889 7.97880554 C-6.39266068 6.67446847 -6.39358248 5.3701314 -6.3945322 4.02626896 C-6.18673313 -0.84974485 -4.39993583 0.02047425 0 0 Z " fill="#FEFEFE" transform="translate(405.271484375,303.8610534667969)"/>
<path d="M0 0 C1.53125 1.26953125 1.53125 1.26953125 2.53125 2.26953125 C2.86125 -1.03046875 3.19125 -4.33046875 3.53125 -7.73046875 C8.49747349 -7.75511973 13.46366166 -7.77330524 18.42993164 -7.78540039 C20.12069316 -7.79044065 21.81145029 -7.7972728 23.50219727 -7.8059082 C25.92725707 -7.81798732 28.35225944 -7.82369998 30.77734375 -7.828125 C31.91797523 -7.83586693 31.91797523 -7.83586693 33.08164978 -7.84376526 C34.8985757 -7.84396113 36.71538127 -7.79244152 38.53125 -7.73046875 C40.15111179 -6.11060696 39.65726929 -4.33814481 39.65823364 -2.09924316 C39.66105347 -1.09802933 39.66387329 -0.09681549 39.66677856 0.93473816 C39.66374222 2.5960955 39.66374222 2.5960955 39.66064453 4.29101562 C39.66327301 6.02983757 39.66327301 6.02983757 39.66595459 7.80378723 C39.67037595 11.65696688 39.66743411 15.51010108 39.6640625 19.36328125 C39.66473546 22.02746641 39.6657037 24.69165016 39.66696167 27.35583496 C39.66878322 32.94800311 39.66637745 38.54015807 39.66162109 44.13232422 C39.6561785 50.60625627 39.65794117 57.08015683 39.6634475 63.55408812 C39.66797906 69.1031253 39.66862897 74.65215299 39.66600883 80.20119143 C39.66444629 83.51948433 39.66464174 86.83775911 39.66754532 90.15605164 C39.67007017 93.85340539 39.66623361 97.55069772 39.66064453 101.24804688 C39.66266876 102.35561844 39.66469299 103.46319 39.66677856 104.60432434 C39.66395874 105.60553818 39.66113892 106.60675201 39.65823364 107.63830566 C39.6576681 108.95129513 39.6576681 108.95129513 39.65709114 110.29080963 C39.53125 112.26953125 39.53125 112.26953125 38.53125 113.26953125 C35.93765678 113.35804654 33.37085309 113.3847907 30.77734375 113.3671875 C30.00189713 113.36577255 29.2264505 113.3643576 28.42750549 113.36289978 C25.94121506 113.3572847 23.4550134 113.34472971 20.96875 113.33203125 C19.28711067 113.32701819 17.60546994 113.32245495 15.92382812 113.31835938 C11.79293434 113.30731038 7.66210724 113.2900357 3.53125 113.26953125 C3.20125 109.96953125 2.87125 106.66953125 2.53125 103.26953125 C1.5825 104.15640625 0.63375 105.04328125 -0.34375 105.95703125 C-11.30748542 115.36404968 -24.7884858 117.93016615 -38.87890625 117.05859375 C-50.78365528 115.52529679 -62.41974775 111.37890799 -71.46875 103.26953125 C-71.46875 102.60953125 -71.46875 101.94953125 -71.46875 101.26953125 C-72.95375 100.77453125 -72.95375 100.77453125 -74.46875 100.26953125 C-74.46875 99.60953125 -74.46875 98.94953125 -74.46875 98.26953125 C-75.12875 98.26953125 -75.78875 98.26953125 -76.46875 98.26953125 C-89.85018631 82.73170455 -93.68652247 65.4696959 -92.6328125 45.43603516 C-91.33117355 28.247428 -84.2071732 14.46993818 -71.84375 2.58203125 C-66.41877088 -1.96934288 -59.87668375 -4.82890735 -53.46875 -7.73046875 C-52.64761719 -8.10558594 -51.82648438 -8.48070312 -50.98046875 -8.8671875 C-34.05855605 -14.68327258 -13.82111289 -10.832023 0 0 Z M-51.078125 33.31640625 C-57.09570143 41.76805854 -57.3368102 50.21885835 -56.46875 60.26953125 C-54.68693522 68.79404081 -49.40580112 75.29135019 -42.46875 80.26953125 C-34.8006189 84.54598898 -25.9685851 85.25609422 -17.53125 82.99609375 C-9.20310176 80.06231426 -2.70935657 73.96143441 1.53125 66.26953125 C4.85228423 57.07677155 4.63156854 47.12249173 0.53125 38.26953125 C-3.38949703 30.70450012 -8.52698625 25.58581203 -16.54296875 22.4609375 C-29.57632475 18.74809542 -42.63170949 22.73615946 -51.078125 33.31640625 Z " fill="#FEFEFE" transform="translate(332.46875,368.73046875)"/>
<path d="M0 0 C12.21 0 24.42 0 37 0 C37 33.33 37 66.66 37 101 C39.31 101 41.62 101 44 101 C53.5605586 102.14155924 60.95002026 105.3456103 68 112 C68 112.66 68 113.32 68 114 C68.66 114 69.32 114 70 114 C71.4375 115.9765625 71.4375 115.9765625 73 118.625 C73.515625 119.48351562 74.03125 120.34203125 74.5625 121.2265625 C79.84308717 131.41465188 80.39427648 144.09103182 77 155 C72.59773791 165.51746662 65.23504896 173.08963168 55 178 C43.75393015 182.47743994 33.76186873 182.23069924 22 180 C22 179.34 22 178.68 22 178 C21.40461426 178.03552979 20.80922852 178.07105957 20.19580078 178.10766602 C17.50583226 178.26498794 14.81546083 178.41384562 12.125 178.5625 C11.18785156 178.61857422 10.25070312 178.67464844 9.28515625 178.73242188 C8.38925781 178.78076172 7.49335937 178.82910156 6.5703125 178.87890625 C5.74289551 178.9260376 4.91547852 178.97316895 4.06298828 179.02172852 C2 179 2 179 0 178 C0.33 156.55 0.66 135.1 1 113 C0.01 112.67 -0.98 112.34 -2 112 C-1.34 112 -0.68 112 0 112 C0 75.04 0 38.08 0 0 Z " fill="#FEFCFD" transform="translate(691,304)"/>
<path d="M0 0 C12.78831638 0 22.46458428 1.99963767 32 11 C32 11.66 32 12.32 32 13 C32.66 13 33.32 13 34 13 C35.4375 14.9765625 35.4375 14.9765625 37 17.625 C37.515625 18.48351562 38.03125 19.34203125 38.5625 20.2265625 C43.84308717 30.41465188 44.39427648 43.09103182 41 54 C36.59773791 64.51746662 29.23504896 72.08963168 19 77 C9.41808763 80.81488269 0.1303789 81.47053887 -10 80 C-9.505 79.01 -9.505 79.01 -9 78 C-8.34 78 -7.68 78 -7 78 C-7 77.34 -7 76.68 -7 76 C-4.69 76 -2.38 76 0 76 C0 50.92 0 25.84 0 0 Z " fill="#BE3C9D" transform="translate(727,405)"/>
<path d="M0 0 C0 20.79 0 41.58 0 63 C-6.7557479 64.12595798 -6.7557479 64.12595798 -10.12890625 63.9140625 C-10.85400391 63.87023437 -11.57910156 63.82640625 -12.32617188 63.78125 C-13.06416016 63.7296875 -13.80214844 63.678125 -14.5625 63.625 C-15.30435547 63.58117187 -16.04621094 63.53734375 -16.81054688 63.4921875 C-20.61963921 63.24797143 -24.27181682 62.87113983 -28 62 C-28 61.01 -28 60.02 -28 59 C-28.66 59 -29.32 59 -30 59 C-30.12673206 52.23750813 -30.21432235 45.47532217 -30.2746582 38.71191406 C-30.29980906 36.4110164 -30.33393396 34.11019868 -30.37719727 31.80957031 C-30.43782147 28.50305467 -30.46620441 25.19759479 -30.48828125 21.890625 C-30.51408768 20.86132874 -30.5398941 19.83203247 -30.56648254 18.77154541 C-30.56928508 11.642352 -30.56928508 11.642352 -27.73071289 8.43945312 C-23.92467638 6.43315976 -20.14259272 4.78710854 -16.125 3.25 C-15.34769531 2.93417969 -14.57039062 2.61835938 -13.76953125 2.29296875 C-13.00253906 1.99519531 -12.23554687 1.69742187 -11.4453125 1.390625 C-10.75969238 1.12282227 -10.07407227 0.85501953 -9.36767578 0.57910156 C-7 0 -7 0 0 0 Z " fill="#B935AB" transform="translate(692,417)"/>
<path d="M0 0 C0.70511719 0.05792725 1.41023437 0.11585449 2.13671875 0.17553711 C4.23868796 0.35157703 6.33777296 0.54918294 8.4375 0.75 C9.59121094 0.84925781 10.74492188 0.94851563 11.93359375 1.05078125 C14.43667803 1.26886532 16.9373313 1.50104252 19.4375 1.75 C19.4375 2.74 19.4375 3.73 19.4375 4.75 C20.118125 4.605625 20.79875 4.46125 21.5 4.3125 C26.08775423 4.99578254 28.61755818 8.20991175 31.4375 11.75 C31.9325 13.235 31.9325 13.235 32.4375 14.75 C29.10442418 16.97205054 26.65550823 17.40557586 22.7890625 18.08984375 C19.97997718 18.87844079 17.92273299 20.22691252 15.4375 21.75 C6.2374635 25.9211532 -2.43504733 28.06256208 -12.5625 26.75 C-13.5525 26.09 -14.5425 25.43 -15.5625 24.75 C-15.5625 23.43 -15.5625 22.11 -15.5625 20.75 C-14.2425 20.75 -12.9225 20.75 -11.5625 20.75 C-11.60890625 19.48542969 -11.6553125 18.22085937 -11.703125 16.91796875 C-11.74064212 15.25783609 -11.77704235 13.59767792 -11.8125 11.9375 C-11.84601562 11.10412109 -11.87953125 10.27074219 -11.9140625 9.41210938 C-12.01131897 3.35789405 -12.01131897 3.35789405 -10.01953125 0.66015625 C-6.6037173 -0.60516116 -3.55080567 -0.35666575 0 0 Z " fill="#A814D8" transform="translate(528.5625,460.25)"/>
<path d="M0 0 C0 20.79 0 41.58 0 63 C-6.7557479 64.12595798 -6.7557479 64.12595798 -10.12890625 63.9140625 C-10.85400391 63.87023437 -11.57910156 63.82640625 -12.32617188 63.78125 C-13.06416016 63.7296875 -13.80214844 63.678125 -14.5625 63.625 C-15.30435547 63.58117187 -16.04621094 63.53734375 -16.81054688 63.4921875 C-20.61963921 63.24797143 -24.27181682 62.87113983 -28 62 C-28 61.01 -28 60.02 -28 59 C-28.66 59 -29.32 59 -30 59 C-30 43.16 -30 27.32 -30 11 C-29.34 11 -28.68 11 -28 11 C-28 26.18 -28 41.36 -28 57 C-25.03 57.33 -22.06 57.66 -19 58 C-18.67 58.33 -18.34 58.66 -18 59 C-12.72 59.33 -7.44 59.66 -2 60 C-2.33 41.52 -2.66 23.04 -3 4 C-14.15920983 5.96518133 -14.15920983 5.96518133 -19 10 C-21.25 9.6875 -21.25 9.6875 -23 9 C-22 6 -22 6 -18.8671875 4.39453125 C-17.54120912 3.85535329 -16.21017665 3.32847952 -14.875 2.8125 C-13.89660156 2.40354492 -13.89660156 2.40354492 -12.8984375 1.98632812 C-12.24875 1.72916016 -11.5990625 1.47199219 -10.9296875 1.20703125 C-10.34429199 0.9747583 -9.75889648 0.74248535 -9.15576172 0.50317383 C-7 0 -7 0 0 0 Z " fill="#A746A4" transform="translate(692,417)"/>
<path d="M0 0 C12.78831638 0 22.46458428 1.99963767 32 11 C32 11.66 32 12.32 32 13 C32.66 13 33.32 13 34 13 C35.32421875 14.609375 35.32421875 14.609375 36.6875 16.75 C37.37392578 17.79414063 37.37392578 17.79414063 38.07421875 18.859375 C39.16906025 21.39090725 38.9435441 22.46100862 38 25 C37.34 25 36.68 25 36 25 C35.505 23.845 35.01 22.69 34.5 21.5 C31.31818639 15.12504959 25.63977029 8.82190237 19 6 C13.61672816 5.02924606 8.45998524 4.90250026 3 5 C2.18840606 14.13784278 1.80667316 23.22327983 1.68359375 32.39453125 C1.66281265 33.70789963 1.64203156 35.02126801 1.62062073 36.37443542 C1.56617238 39.81836443 1.5164322 43.26234485 1.46777344 46.70635986 C1.41698368 50.23983175 1.36160181 53.7732316 1.30664062 57.30664062 C1.20000817 64.20436435 1.09836424 71.10215353 1 78 C2.01320313 77.7834375 2.01320313 77.7834375 3.046875 77.5625 C3.93890625 77.376875 4.8309375 77.19125 5.75 77 C7.07257812 76.7215625 7.07257812 76.7215625 8.421875 76.4375 C11 76 11 76 15 76 C16.485 75.505 16.485 75.505 18 75 C18 75.66 18 76.32 18 77 C8.47823003 80.65691165 0.07418662 81.46238193 -10 80 C-9.505 79.01 -9.505 79.01 -9 78 C-8.34 78 -7.68 78 -7 78 C-7 77.34 -7 76.68 -7 76 C-4.69 76 -2.38 76 0 76 C0 50.92 0 25.84 0 0 Z " fill="#AC4A89" transform="translate(727,405)"/>
<path d="M0 0 C0.70511719 0.05792725 1.41023437 0.11585449 2.13671875 0.17553711 C4.23868796 0.35157703 6.33777296 0.54918294 8.4375 0.75 C9.59121094 0.84925781 10.74492188 0.94851563 11.93359375 1.05078125 C14.43667803 1.26886532 16.9373313 1.50104252 19.4375 1.75 C19.4375 2.74 19.4375 3.73 19.4375 4.75 C20.159375 4.646875 20.88125 4.54375 21.625 4.4375 C24.4375 4.75 24.4375 4.75 27.25 6.9375 C29.4375 9.75 29.4375 9.75 29.75 12.5625 C29.646875 13.284375 29.54375 14.00625 29.4375 14.75 C27.1275 15.08 24.8175 15.41 22.4375 15.75 C23.7575 14.76 25.0775 13.77 26.4375 12.75 C25.9425 10.77 25.9425 10.77 25.4375 8.75 C24.33535156 8.64042969 23.23320313 8.53085937 22.09765625 8.41796875 C11.44274834 7.31818358 0.95985161 5.74791486 -9.5625 3.75 C-9.55089844 4.94238281 -9.53929687 6.13476562 -9.52734375 7.36328125 C-9.51796408 8.92968594 -9.50886407 10.49609231 -9.5 12.0625 C-9.49162109 12.84818359 -9.48324219 13.63386719 -9.47460938 14.44335938 C-9.47138672 15.20068359 -9.46816406 15.95800781 -9.46484375 16.73828125 C-9.45960693 17.43477783 -9.45437012 18.13127441 -9.44897461 18.84887695 C-9.5625 20.75 -9.5625 20.75 -10.5625 23.75 C-5.2825 23.42 -0.0025 23.09 5.4375 22.75 C5.1075 23.74 4.7775 24.73 4.4375 25.75 C0.94703395 26.91348868 -1.88527017 26.91834776 -5.5625 26.9375 C-6.8 26.95167969 -8.0375 26.96585937 -9.3125 26.98046875 C-12.5625 26.75 -12.5625 26.75 -15.5625 24.75 C-15.5625 23.43 -15.5625 22.11 -15.5625 20.75 C-14.2425 20.75 -12.9225 20.75 -11.5625 20.75 C-11.60890625 19.48542969 -11.6553125 18.22085937 -11.703125 16.91796875 C-11.74064212 15.25783609 -11.77704235 13.59767792 -11.8125 11.9375 C-11.84601562 11.10412109 -11.87953125 10.27074219 -11.9140625 9.41210938 C-12.01131897 3.35789405 -12.01131897 3.35789405 -10.01953125 0.66015625 C-6.6037173 -0.60516116 -3.55080567 -0.35666575 0 0 Z " fill="#9F38BB" transform="translate(528.5625,460.25)"/>
<path d="M0 0 C-0.84426693 5.07656607 -4.05165696 7.05728922 -8 10 C-13.78822771 14.13444836 -20.18300367 13.27308442 -27 13 C-27 11.68 -27 10.36 -27 9 C-6.19672131 0 -6.19672131 0 0 0 Z " fill="#A84BAD" transform="translate(624,441)"/>
<path d="M0 0 C5.28 0.33 10.56 0.66 16 1 C16 1.99 16 2.98 16 4 C17.0828125 3.8453125 17.0828125 3.8453125 18.1875 3.6875 C21 4 21 4 23.8125 6.1875 C26 9 26 9 26.3125 11.8125 C26.209375 12.534375 26.10625 13.25625 26 14 C23.69 14.33 21.38 14.66 19 15 C20.32 14.01 21.64 13.02 23 12 C22.505 10.02 22.505 10.02 22 8 C20.86304688 7.87882812 19.72609375 7.75765625 18.5546875 7.6328125 C9.0047982 6.6012335 -0.50106017 5.4355311 -10 4 C-10 3.01 -10 2.02 -10 1 C-5.71 1.33 -1.42 1.66 3 2 C2.01 1.34 1.02 0.68 0 0 Z " fill="#A422C6" transform="translate(532,461)"/>
<path d="M0 0 C0.66 0 1.32 0 2 0 C2 15.18 2 30.36 2 46 C4.31 46.33 6.62 46.66 9 47 C9 47.66 9 48.32 9 49 C2.25 49.125 2.25 49.125 0 48 C0 32.16 0 16.32 0 0 Z " fill="#B26AAD" transform="translate(662,428)"/>
<path d="M0 0 C0.99 0.33 1.98 0.66 3 1 C3.99 0.67 4.98 0.34 6 0 C6 0.66 6 1.32 6 2 C-3.52176997 5.65691165 -11.92581338 6.46238193 -22 5 C-21.67 4.34 -21.34 3.68 -21 3 C-20.34 3 -19.68 3 -19 3 C-19 2.34 -19 1.68 -19 1 C-16.36 1 -13.72 1 -11 1 C-11 1.66 -11 2.32 -11 3 C-9.35328588 2.69217504 -7.70764424 2.37860766 -6.0625 2.0625 C-5.14597656 1.88847656 -4.22945312 1.71445312 -3.28515625 1.53515625 C-1.04710156 1.22285012 -1.04710156 1.22285012 0 0 Z " fill="#AF4EAD" transform="translate(739,480)"/>
<path d="M0 0 C-2.96159691 3.40164551 -5.11500898 4.60478905 -9.5 5.5625 C-13.47034882 6.44055791 -15.80201017 7.52503396 -19 10 C-21.25 9.6875 -21.25 9.6875 -23 9 C-22 6 -22 6 -18.8671875 4.39453125 C-17.54120912 3.85535329 -16.21017665 3.32847952 -14.875 2.8125 C-13.89660156 2.40354492 -13.89660156 2.40354492 -12.8984375 1.98632812 C-8.46331513 0.23075885 -4.83629059 -0.28264036 0 0 Z " fill="#BE52A7" transform="translate(692,417)"/>
<path d="M0 0 C0.99 0.33 1.98 0.66 3 1 C1.83917375 4.48247874 1.09067524 4.88819244 -1.9375 6.75 C-3.00291016 7.42289062 -3.00291016 7.42289062 -4.08984375 8.109375 C-4.72019531 8.40328125 -5.35054687 8.6971875 -6 9 C-6.66 8.67 -7.32 8.34 -8 8 C-8.99 8.33 -9.98 8.66 -11 9 C-11 8.34 -11 7.68 -11 7 C-11.66 7 -12.32 7 -13 7 C-13.33 7.66 -13.66 8.32 -14 9 C-16.32156597 9.40729228 -18.6568787 9.74438677 -21 10 C-19 7 -19 7 -16.8125 6.3125 C-13.52303184 5.94700354 -10.30703016 5.93515627 -7 6 C-7 5.34 -7 4.68 -7 4 C-6.030625 3.525625 -5.06125 3.05125 -4.0625 2.5625 C-1.19522563 1.29806053 -1.19522563 1.29806053 0 0 Z " fill="#AA35A3" transform="translate(752,473)"/>
<path d="M0 0 C0 15.51 0 31.02 0 47 C-0.33 47 -0.66 47 -1 47 C-1.00808685 46.45320587 -1.01617371 45.90641174 -1.02450562 45.3430481 C-1.11038769 39.66546886 -1.20988325 33.9882454 -1.31738281 28.31103516 C-1.35572842 26.1906531 -1.39057133 24.07020474 -1.421875 21.94970703 C-1.46740466 18.90633402 -1.52541839 15.86341968 -1.5859375 12.8203125 C-1.59748871 11.86818878 -1.60903992 10.91606506 -1.62094116 9.93508911 C-1.64081085 9.05432709 -1.66068054 8.17356506 -1.68115234 7.26611328 C-1.69447601 6.48889923 -1.70779968 5.71168518 -1.7215271 4.91091919 C-1.84039576 2.7611053 -1.84039576 2.7611053 -4 1 C-2 0 -2 0 0 0 Z " fill="#B0429A" transform="translate(691,418)"/>
<path d="M0 0 C0.99 0.99 1.98 1.98 3 3 C0.71600231 5.66223934 -0.94721689 6.48155948 -4.375 7.125 C-5.56029297 7.35703125 -5.56029297 7.35703125 -6.76953125 7.59375 C-7.50558594 7.7278125 -8.24164062 7.861875 -9 8 C-10.010625 8.20625 -11.02125 8.4125 -12.0625 8.625 C-12.701875 8.74875 -13.34125 8.8725 -14 9 C-13.34 7.35 -12.68 5.7 -12 4 C-3.42857143 2.71428571 -3.42857143 2.71428571 0 4 C0 2.68 0 1.36 0 0 Z " fill="#AE33D5" transform="translate(558,471)"/>
<path d="M0 0 C0.33 1.32 0.66 2.64 1 4 C1.66 4 2.32 4 3 4 C2.67 7.96 2.34 11.92 2 16 C1.01 16 0.02 16 -1 16 C-1.22127098 13.70954632 -1.4266504 11.41755236 -1.625 9.125 C-1.74101563 7.84882813 -1.85703125 6.57265625 -1.9765625 5.2578125 C-1.98816406 3.64519531 -1.98816406 3.64519531 -2 2 C-1.34 1.34 -0.68 0.68 0 0 Z " fill="#B04596" transform="translate(767,439)"/>
<path d="M0 0 C1.32 0 2.64 0 4 0 C4.33 0.66 4.66 1.32 5 2 C5.66 2 6.32 2 7 2 C8.32421875 3.609375 8.32421875 3.609375 9.6875 5.75 C10.14511719 6.44609375 10.60273437 7.1421875 11.07421875 7.859375 C12.16906025 10.39090725 11.9435441 11.46100862 11 14 C10.34 14 9.68 14 9 14 C8.443125 12.80375 7.88625 11.6075 7.3125 10.375 C5.32886089 6.3792825 2.97733792 3.30815324 0 0 Z " fill="#B04F88" transform="translate(754,416)"/>
<path d="M0 0 C-0.54226981 3.79588866 -2.20127563 5.47211993 -5 8 C-5.99 7.67 -6.98 7.34 -8 7 C-7.34 7 -6.68 7 -6 7 C-6 6.34 -6 5.68 -6 5 C-7.65 5 -9.3 5 -11 5 C-11.33 4.34 -11.66 3.68 -12 3 C-10.56445975 2.49440092 -9.1264798 1.9957251 -7.6875 1.5 C-6.88699219 1.2215625 -6.08648438 0.943125 -5.26171875 0.65625 C-3 0 -3 0 0 0 Z " fill="#A74DAA" transform="translate(624,441)"/>
<path d="M0 0 C-0.33 0.99 -0.66 1.98 -1 3 C-4.28519475 4.09506492 -6.73663415 4.09960608 -10.1875 4.0625 C-11.81751953 4.04896484 -11.81751953 4.04896484 -13.48046875 4.03515625 C-14.31191406 4.02355469 -15.14335938 4.01195312 -16 4 C-15.67 3.01 -15.34 2.02 -15 1 C-9.9752761 0.37470103 -5.07471573 -0.13012092 0 0 Z " fill="#9623C2" transform="translate(534,483)"/>
<path d="M0 0 C0.33 1.32 0.66 2.64 1 4 C-0.26418246 4.69965443 -1.53665402 5.38434763 -2.8125 6.0625 C-3.52019531 6.44535156 -4.22789062 6.82820313 -4.95703125 7.22265625 C-7 8 -7 8 -10 7 C-8.6875 5 -8.6875 5 -7 3 C-6.01 3 -5.02 3 -4 3 C-4 2.34 -4 1.68 -4 1 C-2.68 0.67 -1.36 0.34 0 0 Z " fill="#9A22C5" transform="translate(544,477)"/>
<path d="M0 0 C0.99 0.33 1.98 0.66 3 1 C1.85981998 4.42054006 1.07541482 5.2426201 -2 7 C-4.1875 6.8125 -4.1875 6.8125 -6 6 C-6.33 5.34 -6.66 4.68 -7 4 C-6.030625 3.525625 -5.06125 3.05125 -4.0625 2.5625 C-1.19522563 1.29806053 -1.19522563 1.29806053 0 0 Z " fill="#AE3FA8" transform="translate(752,473)"/>
<path d="M0 0 C-1.78174788 2.30142435 -3.16304165 3.80034391 -6.046875 4.48828125 C-8.0246611 4.72323102 -10.01271872 4.86751458 -12 5 C-12 4.01 -12 3.02 -12 2 C-7.8794254 0.00214565 -4.54805635 -0.17835515 0 0 Z " fill="#BE60A3" transform="translate(692,417)"/>
<path d="M0 0 C0 0.66 0 1.32 0 2 C-3.71973879 4.84450614 -6.37390802 5.3227506 -11 5 C-7.56138316 1.21752148 -5.17193751 0 0 0 Z " fill="#AE2FB5" transform="translate(618,446)"/>
<path d="M0 0 C1.65 0 3.3 0 5 0 C5.66 1.65 6.32 3.3 7 5 C5.1875 5.625 5.1875 5.625 3 6 C2.01 5.34 1.02 4.68 0 4 C0 2.68 0 1.36 0 0 Z " fill="#9039AF" transform="translate(513,481)"/>
<path d="M0 0 C3.63 0.33 7.26 0.66 11 1 C11 1.66 11 2.32 11 3 C9.741875 3.185625 8.48375 3.37125 7.1875 3.5625 C6.12595703 3.71912109 6.12595703 3.71912109 5.04296875 3.87890625 C3 4 3 4 0 3 C0 2.01 0 1.02 0 0 Z " fill="#C45397" transform="translate(735,406)"/>
<path d="M0 0 C0.99 0 1.98 0 3 0 C2.37240135 2.92879371 1.41377341 5.36095629 0 8 C-0.99 8 -1.98 8 -3 8 C-2.37240135 5.07120629 -1.41377341 2.63904371 0 0 Z " fill="#AE469D" transform="translate(764,459)"/>
<path d="M0 0 C3.23060419 0.55700072 5.0658223 1.29215122 7 4 C7.1875 6.6875 7.1875 6.6875 7 9 C4.69 9.33 2.38 9.66 0 10 C1.32 9.01 2.64 8.02 4 7 C3.43628586 3.73045798 2.50037734 2.17424117 0 0 Z " fill="#962FB4" transform="translate(551,466)"/>
<path d="M0 0 C-9.41002278 4.59225513 -9.41002278 4.59225513 -14 4 C-9.68030697 0.34487513 -5.55645743 -1.67651733 0 0 Z " fill="#B843BA" transform="translate(613,446)"/>
<path d="M0 0 C2.31 0 4.62 0 7 0 C7 0.66 7 1.32 7 2 C5.02 2.99 3.04 3.98 1 5 C0.67 3.35 0.34 1.7 0 0 Z " fill="#BF6790" transform="translate(727,405)"/>
<path d="M0 0 C1.32 0 2.64 0 4 0 C4 0.99 4 1.98 4 3 C5.65 3 7.3 3 9 3 C9 3.33 9 3.66 9 4 C5.7 3.67 2.4 3.34 -1 3 C-0.67 2.01 -0.34 1.02 0 0 Z " fill="#BD4DD6" transform="translate(544,462)"/>
<path d="M0 0 C2.97 0.33 5.94 0.66 9 1 C5.23312136 2.88343932 3.97041037 3.22057835 0 3 C0 2.01 0 1.02 0 0 Z " fill="#871EA3" transform="translate(522,462)"/>
<path d="M0 0 C0.33 0.66 0.66 1.32 1 2 C1.99 2.33 2.98 2.66 4 3 C1 5 1 5 -1.1875 4.625 C-1.785625 4.41875 -2.38375 4.2125 -3 4 C-2.67 3.01 -2.34 2.02 -2 1 C-1.34 0.67 -0.68 0.34 0 0 Z " fill="#AE4B98" transform="translate(672,422)"/>
<path d="M0 0 C2 1 2 1 3 3 C0.39417629 3.93065133 -0.64198224 4.14917407 -3.25 3.0625 C-3.8275 2.711875 -4.405 2.36125 -5 2 C-2.625 0.9375 -2.625 0.9375 0 0 Z " fill="#A41DD0" transform="translate(535,480)"/>
<path d="M0 0 C2.31 0.33 4.62 0.66 7 1 C7 1.66 7 2.32 7 3 C4.69 3 2.38 3 0 3 C0 2.01 0 1.02 0 0 Z " fill="#972C9E" transform="translate(664,474)"/>
<path d="M0 0 C0.103125 0.639375 0.20625 1.27875 0.3125 1.9375 C0.539375 2.618125 0.76625 3.29875 1 4 C1.99 4.33 2.98 4.66 4 5 C3.67 5.99 3.34 6.98 3 8 C2.01 8 1.02 8 0 8 C0 5.36 0 2.72 0 0 Z " fill="#BB46A6" transform="translate(765,451)"/>
<path d="M0 0 C0.99 0.33 1.98 0.66 3 1 C2.34 2.65 1.68 4.3 1 6 C0.34 5.67 -0.32 5.34 -1 5 C-0.67 3.35 -0.34 1.7 0 0 Z " fill="#B24F8C" transform="translate(766,433)"/>
</svg>
